<svg width="1355" height="495" viewBox="0 0 1355 495" fill="none" xmlns="http://www.w3.org/2000/svg">
<path fill-rule="evenodd" clip-rule="evenodd" d="M57.9977 244.727C33.1814 220.091 33.1814 180.148 57.9977 155.512L127.764 86.2522C183.909 45.6122 263.048 50.4475 313.725 100.756L329.203 116.119C306.589 93.6722 270.149 93.317 247.097 115.051L245.994 116.122L131.495 229.789C109.317 251.806 106.955 286.043 124.416 310.66L57.9977 244.725V244.727Z" fill="black"/>
<path fill-rule="evenodd" clip-rule="evenodd" d="M243.128 116.577C267.945 91.9413 308.18 91.9413 332.997 116.577L402.763 185.837C443.701 241.576 438.83 320.138 388.154 370.449L372.678 385.812C395.289 363.366 395.647 327.19 373.754 304.305L372.676 303.21L258.174 189.535C235.996 167.521 201.508 165.177 176.71 182.513L243.128 116.575V116.577Z" fill="black"/>
<path fill-rule="evenodd" clip-rule="evenodd" d="M372.213 300.403C397.029 325.039 397.029 364.979 372.213 389.615L302.446 458.88C246.299 499.518 167.162 494.685 116.483 444.374L101.008 429.011C123.619 451.46 160.059 451.816 183.111 430.079L184.214 429.011L298.716 315.336C320.894 293.319 323.253 259.079 305.795 234.462L372.213 300.405V300.403Z" fill="#01C8A9"/>
<path opacity="0.65" fill-rule="evenodd" clip-rule="evenodd" d="M57.9977 244.714C33.1814 220.078 33.1814 180.135 57.9977 155.499L127.764 86.2393C183.911 45.5992 263.048 50.4346 313.727 100.743L329.203 116.106C306.592 93.6592 270.151 93.3042 247.099 115.038L245.997 116.109L131.492 229.779C109.317 251.795 106.955 286.033 124.419 310.65L57.9977 244.714Z" fill="#00473C"/>
<path opacity="0.35" fill-rule="evenodd" clip-rule="evenodd" d="M243.153 116.575C267.969 91.9387 308.205 91.9387 333.021 116.575L402.788 185.835C443.725 241.574 438.855 320.136 388.178 370.446L372.703 385.81C395.314 363.363 395.671 327.187 373.778 304.302L372.7 303.208L258.198 189.535C236.023 167.518 201.532 165.177 176.735 182.508L243.153 116.572V116.575Z" fill="#26FAD9"/>
<path fill-rule="evenodd" clip-rule="evenodd" d="M186.561 428.014C161.745 452.65 121.509 452.65 96.693 428.014L27.4373 359.264C-13.4975 303.525 -8.62939 224.963 42.0496 174.652L57.5279 159.289C34.9143 181.736 34.5539 217.912 56.4521 240.796L57.5279 241.891L170.852 354.394C195.286 378.651 234.669 379.025 259.561 355.513L260.717 354.392L186.561 428.014Z" fill="black"/>
<path d="M589.24 101.146H528.742V81.0488H634.152V333.91C634.152 354.281 631.691 371.918 626.77 386.82C621.848 401.859 614.602 414.643 605.031 425.17C595.461 435.834 583.566 444.516 569.348 451.215C555.129 457.914 538.791 463.178 520.334 467.006L513.361 449.369C521.564 447.318 529.973 444.516 538.586 440.961C547.336 437.406 555.334 432.895 562.58 427.426C569.826 422.094 575.91 415.668 580.832 408.148C585.754 400.629 588.557 391.879 589.24 381.898V101.146ZM778.527 188.92C792.609 188.92 805.803 191.586 818.107 196.918C830.412 202.113 841.076 209.291 850.1 218.451C859.26 227.475 866.438 238.139 871.633 250.443C876.828 262.611 879.426 275.6 879.426 289.408C879.426 303.354 876.828 316.479 871.633 328.783C866.438 340.951 859.26 351.615 850.1 360.775C841.076 369.799 830.412 376.977 818.107 382.309C805.803 387.504 792.609 390.102 778.527 390.102C764.719 390.102 751.73 387.504 739.562 382.309C727.531 376.977 717.004 369.799 707.98 360.775C698.957 351.615 691.779 340.951 686.447 328.783C681.252 316.479 678.654 303.354 678.654 289.408C678.654 275.6 681.252 262.611 686.447 250.443C691.779 238.139 698.957 227.475 707.98 218.451C717.004 209.291 727.531 202.113 739.562 196.918C751.73 191.586 764.719 188.92 778.527 188.92ZM778.117 207.582C767.453 207.582 758.43 209.633 751.047 213.734C743.801 217.836 737.922 223.578 733.41 230.961C728.898 238.344 725.617 247.094 723.566 257.211C721.652 267.328 720.695 278.334 720.695 290.229C720.695 301.986 721.721 312.855 723.771 322.836C725.822 332.816 729.104 341.498 733.615 348.881C738.127 356.127 744.006 361.801 751.252 365.902C758.635 370.004 767.59 372.055 778.117 372.055C788.645 372.055 797.6 370.004 804.982 365.902C812.365 361.801 818.381 356.127 823.029 348.881C827.814 341.498 831.232 332.816 833.283 322.836C835.471 312.855 836.564 301.986 836.564 290.229C836.564 278.334 835.471 267.328 833.283 257.211C831.232 247.094 827.814 238.344 823.029 230.961C818.381 223.578 812.365 217.836 804.982 213.734C797.6 209.633 788.645 207.582 778.117 207.582ZM962.893 386H921.262V192.816H962.893V386ZM962.893 160.414H921.262V136.01H962.893V160.414ZM1059.69 208.812C1068.44 204.984 1076.51 201.84 1083.89 199.379C1091.27 196.781 1098.18 194.73 1104.6 193.227C1111.03 191.586 1116.97 190.492 1122.44 189.945C1128.05 189.262 1133.45 188.92 1138.64 188.92C1151.5 188.92 1161.27 192.27 1167.97 198.969C1174.81 205.668 1178.22 216.469 1178.22 231.371V386H1136.59V237.729C1136.59 234.721 1136.25 231.645 1135.57 228.5C1135.02 225.355 1133.93 222.553 1132.29 220.092C1130.65 217.631 1128.39 215.648 1125.52 214.145C1122.79 212.504 1119.3 211.684 1115.06 211.684C1108.09 211.684 1100.02 212.572 1090.86 214.35C1081.7 215.99 1071.31 219.477 1059.69 224.809V386H1018.06V192.816H1059.69V208.812ZM1283.02 188.92C1288.76 188.92 1293.75 189.193 1297.99 189.74C1302.23 190.15 1306.19 190.834 1309.88 191.791C1313.71 192.748 1317.47 193.842 1321.16 195.072C1324.86 196.303 1328.96 197.67 1333.47 199.174L1333.06 217.221C1326.63 214.896 1319.8 212.846 1312.55 211.068C1305.44 209.291 1297.03 208.402 1287.33 208.402C1285.28 208.402 1282.81 208.676 1279.94 209.223C1277.07 209.77 1274.34 210.727 1271.74 212.094C1269.14 213.324 1266.96 215.033 1265.18 217.221C1263.4 219.408 1262.51 222.074 1262.51 225.219C1262.51 228.773 1264.08 233.08 1267.23 238.139C1270.51 243.197 1275.64 249.486 1282.61 257.006L1304.55 281.82C1309.2 287.152 1313.78 292.348 1318.29 297.406C1322.94 302.328 1327.04 307.182 1330.6 311.967C1334.15 316.752 1337.02 321.537 1339.21 326.322C1341.54 330.971 1342.7 335.619 1342.7 340.268C1342.7 349.291 1340.65 356.947 1336.54 363.236C1332.44 369.525 1327.11 374.721 1320.55 378.822C1313.99 382.787 1306.54 385.658 1298.2 387.436C1289.99 389.213 1281.72 390.102 1273.38 390.102C1261.76 390.102 1251.44 388.803 1242.41 386.205C1233.53 383.744 1225.12 380.189 1217.19 375.541L1218.83 357.084C1225.12 360.365 1231.96 363.441 1239.34 366.312C1246.72 369.047 1254.31 370.414 1262.1 370.414C1274.95 370.414 1284.59 368.158 1291.02 363.646C1297.44 359.135 1300.66 352.572 1300.66 343.959C1300.66 337.943 1298.13 331.654 1293.07 325.092C1288.15 318.529 1281.99 311.283 1274.61 303.354L1252.87 278.949C1247.13 271.703 1242.21 265.619 1238.11 260.697C1234.14 255.775 1230.93 251.4 1228.47 247.572C1226.01 243.744 1224.16 240.121 1222.93 236.703C1221.84 233.285 1221.29 229.457 1221.29 225.219C1221.29 218.246 1222.86 212.436 1226.01 207.787C1229.29 203.139 1233.66 199.447 1239.13 196.713C1244.74 193.842 1251.3 191.859 1258.82 190.766C1266.34 189.535 1274.41 188.92 1283.02 188.92Z" fill="#01C8A9"/>
</svg>
