<svg width="428" height="428" viewBox="0 0 428 428" fill="none" xmlns="http://www.w3.org/2000/svg">
<path fill-rule="evenodd" clip-rule="evenodd" d="M57.5764 185.727C32.9404 161.091 32.9404 121.148 57.5764 96.5121L126.836 27.2522C182.573 -13.3878 261.137 -8.55248 311.445 41.7557L326.811 57.1189C304.362 34.6722 268.186 34.3171 245.301 56.0509L244.207 57.1215L130.54 170.789C108.523 192.806 106.178 227.043 123.512 251.66L57.5764 185.725V185.727Z" fill="black"/>
<path fill-rule="evenodd" clip-rule="evenodd" d="M241.362 57.5774C265.998 32.9414 305.941 32.9414 330.577 57.5774L399.837 126.837C440.477 182.576 435.642 261.138 385.334 311.449L369.971 326.812C392.417 304.366 392.772 268.19 371.039 245.305L369.968 244.21L256.298 130.535C234.281 108.521 200.044 106.177 175.426 123.513L241.362 57.5748V57.5774Z" fill="black"/>
<path fill-rule="evenodd" clip-rule="evenodd" d="M369.509 241.403C394.145 266.039 394.145 305.979 369.509 330.615L300.249 399.88C244.51 440.518 165.948 435.685 115.637 385.374L100.274 370.011C122.721 392.46 158.896 392.816 181.781 371.079L182.876 370.011L296.546 256.336C318.562 234.319 320.904 200.079 303.573 175.462L369.509 241.405V241.403Z" fill="#01C8A9"/>
<path opacity="0.65" fill-rule="evenodd" clip-rule="evenodd" d="M57.5764 185.714C32.9404 161.078 32.9404 121.135 57.5764 96.4991L126.836 27.2393C182.575 -13.4008 261.137 -8.56538 311.448 41.7428L326.811 57.1059C304.365 34.6592 268.189 34.3041 245.304 56.0379L244.209 57.1086L130.537 170.779C108.523 192.795 106.178 227.033 123.515 251.65L57.5764 185.714V185.714Z" fill="#00473C"/>
<path opacity="0.35" fill-rule="evenodd" clip-rule="evenodd" d="M241.386 57.5748C266.022 32.9387 305.966 32.9387 330.602 57.5748L399.861 126.835C440.501 182.574 435.666 261.136 385.358 311.446L369.995 326.81C392.441 304.363 392.797 268.187 371.063 245.302L369.992 244.208L256.322 130.535C234.308 108.518 200.068 106.177 175.451 123.508L241.386 57.5721V57.5748Z" fill="#26FAD9"/>
<path fill-rule="evenodd" clip-rule="evenodd" d="M185.206 369.014C160.57 393.65 120.627 393.65 95.9906 369.014L27.2381 300.264C-13.3993 244.525 -8.56665 165.963 41.7442 115.652L57.11 100.289C34.6607 122.736 34.3029 158.912 56.042 181.796L57.11 182.891L169.61 295.394C193.867 319.651 232.964 320.025 257.675 296.513L258.823 295.392L185.206 369.014V369.014Z" fill="black"/>
</svg>
