<svg width="269" height="78" viewBox="0 0 269 78" fill="none" xmlns="http://www.w3.org/2000/svg">
<path d="M38.34 38.83L62.1 77H48.02L30.75 49.28L14.58 77H0.61L24.37 38.83L0.5 0.549994H14.58L31.96 28.49L48.24 0.549994H62.21L38.34 38.83Z" fill="#4285F4"/>
<path d="M122.397 31.9V42.46H77.1872V31.9H122.397Z" fill="#EA4335"/>
<path d="M166.503 77.99C160.783 77.99 155.613 76.7067 150.993 74.14C146.373 71.5 142.743 67.8333 140.103 63.14C137.463 58.3733 136.143 52.8733 136.143 46.64C136.143 40.48 137.5 35.0167 140.213 30.25C142.926 25.4833 146.63 21.8167 151.323 19.25C156.016 16.6833 161.26 15.4 167.053 15.4C172.846 15.4 178.09 16.6833 182.783 19.25C187.476 21.8167 191.18 25.4833 193.893 30.25C196.606 35.0167 197.963 40.48 197.963 46.64C197.963 52.8 196.57 58.2633 193.783 63.03C190.996 67.7967 187.183 71.5 182.343 74.14C177.576 76.7067 172.296 77.99 166.503 77.99ZM166.503 67.1C169.73 67.1 172.736 66.33 175.523 64.79C178.383 63.25 180.693 60.94 182.453 57.86C184.213 54.78 185.093 51.04 185.093 46.64C185.093 42.24 184.25 38.5367 182.563 35.53C180.876 32.45 178.64 30.14 175.853 28.6C173.066 27.06 170.06 26.29 166.833 26.29C163.606 26.29 160.6 27.06 157.813 28.6C155.1 30.14 152.936 32.45 151.323 35.53C149.71 38.5367 148.903 42.24 148.903 46.64C148.903 53.1667 150.553 58.2267 153.853 61.82C157.226 65.34 161.443 67.1 166.503 67.1Z" fill="#FBBC05"/>
<path d="M236.649 77.99C230.929 77.99 225.759 76.7067 221.139 74.14C216.519 71.5 212.889 67.8333 210.249 63.14C207.609 58.3733 206.289 52.8733 206.289 46.64C206.289 40.48 207.646 35.0167 210.359 30.25C213.073 25.4833 216.776 21.8167 221.469 19.25C226.163 16.6833 231.406 15.4 237.199 15.4C242.993 15.4 248.236 16.6833 252.929 19.25C257.623 21.8167 261.326 25.4833 264.039 30.25C266.753 35.0167 268.109 40.48 268.109 46.64C268.109 52.8 266.716 58.2633 263.929 63.03C261.143 67.7967 257.329 71.5 252.489 74.14C247.723 76.7067 242.443 77.99 236.649 77.99ZM236.649 67.1C239.876 67.1 242.883 66.33 245.669 64.79C248.529 63.25 250.839 60.94 252.599 57.86C254.359 54.78 255.239 51.04 255.239 46.64C255.239 42.24 254.396 38.5367 252.709 35.53C251.023 32.45 248.786 30.14 245.999 28.6C243.213 27.06 240.206 26.29 236.979 26.29C233.753 26.29 230.746 27.06 227.959 28.6C225.246 30.14 223.083 32.45 221.469 35.53C219.856 38.5367 219.049 42.24 219.049 46.64C219.049 53.1667 220.699 58.2267 223.999 61.82C227.373 65.34 231.589 67.1 236.649 67.1Z" fill="#34A853"/>
</svg>
